<?xml version="1.0" encoding="utf-8"?>
<!-- Generator: Adobe Illustrator 16.0.0, SVG Export Plug-In . SVG Version: 6.00 Build 0)  -->
<!DOCTYPE svg PUBLIC "-//W3C//DTD SVG 1.1//EN" "http://www.w3.org/Graphics/SVG/1.1/DTD/svg11.dtd">
<svg version="1.1" id="Layer_1" xmlns="http://www.w3.org/2000/svg" xmlns:xlink="http://www.w3.org/1999/xlink" x="0px" y="0px"
	 width="16px" height="16px" viewBox="157 163.244 16 16" enable-background="new 157 163.244 16 16" xml:space="preserve">
<g>
	<g>
		<path fill="#55B948" d="M168.061,166.525c2.402,0,4.037,1.857,4.037,4.574v0.481h-5.989c0.133,1.049,0.951,1.926,2.319,1.926
			c0.75,0,1.634-0.31,2.152-0.826l0.934,1.41c-0.817,0.774-2.069,1.152-3.32,1.152c-2.452,0-4.304-1.703-4.304-4.368
			C163.891,168.468,165.609,166.525,168.061,166.525z M166.076,170.102h3.97c-0.05-0.792-0.583-1.84-1.985-1.84
			C166.743,168.262,166.176,169.276,166.076,170.102z"/>
	</g>
	<g>
		<polygon fill="#55B948" points="160.356,166.516 160.356,168.721 158.152,168.721 158.152,175.042 160.363,175.042 
			160.363,168.72 163.513,168.72 163.513,166.516 		"/>
	</g>
</g>
</svg>
