<?xml version="1.0" encoding="utf-8"?>
<!-- Generator: Adobe Illustrator 16.0.0, SVG Export Plug-In . SVG Version: 6.00 Build 0)  -->
<!DOCTYPE svg PUBLIC "-//W3C//DTD SVG 1.1//EN" "http://www.w3.org/Graphics/SVG/1.1/DTD/svg11.dtd">
<svg version="1.1" id="Layer_1" xmlns="http://www.w3.org/2000/svg" xmlns:xlink="http://www.w3.org/1999/xlink" x="0px" y="0px"
	 width="453.333px" height="186.667px" viewBox="0 0 453.333 186.667" enable-background="new 0 0 453.333 186.667"
	 xml:space="preserve">
<g>
	<rect x="410.595" y="17.582" fill="#55B948" width="17.716" height="17.715"/>
	<g>
		<path fill="#55B948" d="M89.979,43.766c19.478,0,32.738,15.061,32.738,37.095v3.903H74.151
			c1.082,8.507,7.711,15.619,18.803,15.619c6.087,0,13.256-2.51,17.451-6.694l7.574,11.436c-6.627,6.275-16.774,9.345-26.919,9.345
			c-19.887,0-34.9-13.808-34.9-35.423C56.16,59.522,70.093,43.766,89.979,43.766z M73.881,72.772h32.194
			c-0.405-6.416-4.733-14.922-16.097-14.922C79.293,57.85,74.693,66.079,73.881,72.772z"/>
		<path fill="#55B948" d="M299.533,43.766c19.48,0,32.738,15.061,32.738,37.095v3.903h-48.563
			c1.082,8.507,7.711,15.619,18.804,15.619c6.087,0,13.256-2.51,17.451-6.694l7.574,11.436c-6.63,6.275-16.774,9.345-26.922,9.345
			c-19.885,0-34.898-13.808-34.898-35.423C265.716,59.522,279.648,43.766,299.533,43.766z M283.438,72.772h32.194
			c-0.405-6.416-4.735-14.922-16.1-14.922C288.848,57.85,284.25,66.079,283.438,72.772z"/>
		<path fill="#55B948" d="M208.761,91.598c4.734,4.602,14.475,9.203,22.591,9.203c7.439,0,10.959-2.649,10.959-6.832
			c0-4.743-5.684-6.415-13.123-7.95c-11.227-2.23-25.702-5.019-25.702-21.056c0-11.297,9.605-21.197,26.784-21.197
			c11.093,0,19.888,3.904,26.242,9.204l-6.762,12.132c-3.923-4.322-11.364-7.81-19.345-7.81c-6.221,0-10.28,2.371-10.28,6.275
			c0,4.184,5.14,5.718,12.444,7.252c11.227,2.231,26.244,5.299,26.244,22.034c0,12.411-10.146,21.616-28.273,21.616
			c-11.362,0-22.319-3.906-29.219-10.46L208.761,91.598z"/>
	</g>
	<path fill="#55B948" d="M175.984,91.121H193.2V45.438h-17.181v45.601c-2.978,3.905-8.251,7.671-14.882,7.671
		c-7.303,0-12.037-3.069-12.037-12.412V45.438h-17.182V93.27c0,13.11,6.765,21.2,21.103,21.2c10.662,0,18.494-5,22.963-10.146
		V91.121z"/>
	<g>
		<path fill="#55B948" d="M342.844,112.833V43.695h17.953v69.137H342.844z"/>
		<path fill="#55B948" d="M408.182,61.552v51.243h-17.669V61.552h-20.17V43.695h57.968v17.856H408.182z"/>
		<polygon fill="#55B948" points="27.499,43.695 27.499,61.571 9.624,61.571 9.624,112.833 27.559,112.833 27.559,61.568 
			53.098,61.568 53.098,43.695 		"/>
	</g>
</g>
<g>
	<path fill="#55B948" d="M142.651,139.508h10.044v3.572h-10.044v11.181c0,1.209,0.086,2.192,0.259,2.949
		c0.169,0.762,0.45,1.373,0.844,1.838c0.394,0.467,0.896,0.786,1.512,0.958c0.615,0.175,1.365,0.259,2.254,0.259
		c1.23,0,2.22-0.103,2.974-0.309c0.75-0.209,1.467-0.484,2.153-0.829l0.615,3.623c-0.48,0.206-1.242,0.483-2.28,0.828
		c-1.043,0.346-2.333,0.518-3.871,0.518c-1.777,0-3.229-0.208-4.354-0.622c-1.129-0.413-2.006-1.035-2.64-1.864
		c-0.634-0.827-1.069-1.853-1.306-3.079c-0.24-1.223-0.36-2.647-0.36-4.27V143.08h-5.021v-3.572h5.021v-6.729l4.201-0.724V139.508z"
		/>
	<path fill="#55B948" d="M159.46,163.526V128.38l4.253-0.724v12.215c0.683-0.277,1.452-0.491,2.307-0.648
		c0.852-0.153,1.691-0.232,2.509-0.232c1.812,0,3.323,0.269,4.535,0.803c1.215,0.536,2.179,1.286,2.895,2.252
		c0.721,0.966,1.23,2.121,1.538,3.468c0.308,1.346,0.462,2.831,0.462,4.451v13.562h-4.201v-12.63c0-2.969-0.408-5.065-1.23-6.288
		c-0.821-1.227-2.287-1.838-4.406-1.838c-0.889,0-1.752,0.094-2.588,0.283c-0.837,0.189-1.444,0.371-1.819,0.544v19.929H159.46z"/>
	<path fill="#55B948" d="M191.078,143.08h-6.867v-3.572h11.067v14.753c0,2.381,0.326,3.978,0.976,4.787
		c0.648,0.812,1.62,1.217,2.921,1.217c0.99,0,1.902-0.12,2.742-0.361c0.836-0.24,1.492-0.499,1.971-0.776l0.615,3.623
		c-0.202,0.103-0.495,0.232-0.872,0.388c-0.375,0.156-0.811,0.302-1.306,0.44c-0.495,0.138-1.042,0.26-1.639,0.362
		c-0.6,0.104-1.223,0.155-1.871,0.155c-1.504,0-2.749-0.208-3.739-0.622c-0.994-0.413-1.785-1.035-2.386-1.864
		c-0.597-0.827-1.017-1.853-1.253-3.079c-0.239-1.223-0.359-2.647-0.359-4.27V143.08z M192.154,135.781
		c-0.889,0-1.658-0.309-2.307-0.932c-0.648-0.621-0.975-1.467-0.975-2.535c0-1.069,0.326-1.917,0.975-2.537
		c0.648-0.621,1.418-0.933,2.307-0.933c0.923,0,1.699,0.312,2.333,0.933c0.63,0.62,0.945,1.468,0.945,2.537
		c0,1.068-0.315,1.914-0.945,2.535C193.853,135.473,193.077,135.781,192.154,135.781z"/>
	<path fill="#55B948" d="M210.706,140.183c1.538-0.381,3.064-0.675,4.587-0.881c1.52-0.206,2.944-0.312,4.279-0.312
		c3.177,0,5.577,0.829,7.197,2.486c1.624,1.654,2.437,4.313,2.437,7.97v14.08h-4.203v-13.304c0-1.553-0.139-2.812-0.408-3.778
		c-0.274-0.966-0.66-1.716-1.155-2.252c-0.495-0.533-1.092-0.904-1.793-1.112s-1.459-0.31-2.28-0.31
		c-0.683,0-1.41,0.041-2.179,0.128c-0.77,0.086-1.512,0.198-2.229,0.337v20.291h-4.253V140.183z"/>
	<path fill="#55B948" d="M244.886,150.328c0.923,0.69,1.963,1.561,3.126,2.614c1.161,1.052,2.313,2.183,3.458,3.391
		c1.144,1.207,2.229,2.441,3.254,3.699c1.025,1.261,1.845,2.425,2.46,3.494h-5.022c-0.648-1.069-1.451-2.164-2.407-3.288
		c-0.958-1.119-1.973-2.199-3.05-3.234c-1.076-1.035-2.152-1.984-3.229-2.847s-2.042-1.587-2.896-2.175v11.544h-4.253V128.38
		l4.253-0.724v21.896c1.879-1.658,3.758-3.305,5.637-4.943s3.57-3.34,5.073-5.101h4.971c-1.468,1.761-3.236,3.572-5.303,5.435
		C248.89,146.807,246.867,148.603,244.886,150.328z"/>
	<path fill="#55B948" d="M301.664,161.3c-0.479,0.276-1.214,0.568-2.204,0.88c-0.991,0.312-2.136,0.467-3.434,0.467
		c-1.4,0-2.708-0.234-3.919-0.699c-1.213-0.465-2.272-1.172-3.179-2.123c-0.905-0.949-1.622-2.156-2.15-3.623
		c-0.531-1.467-0.796-3.199-0.796-5.202c0-1.759,0.248-3.371,0.743-4.838s1.213-2.736,2.152-3.807
		c0.939-1.069,2.093-1.905,3.46-2.509c1.365-0.604,2.92-0.906,4.662-0.906c2.05,0,3.801,0.148,5.253,0.44
		c1.451,0.293,2.672,0.578,3.664,0.854v21.429c0,3.728-0.933,6.419-2.792,8.075c-1.862,1.657-4.674,2.484-8.43,2.484
		c-1.538,0-2.931-0.122-4.178-0.362c-1.247-0.241-2.349-0.536-3.305-0.879l0.769-3.779c0.888,0.379,1.903,0.69,3.05,0.931
		c1.144,0.242,2.398,0.363,3.766,0.363c2.46,0,4.219-0.5,5.278-1.5c1.058-1.001,1.589-2.625,1.589-4.868V161.3z M301.664,143.288
		c-0.411-0.139-0.974-0.268-1.691-0.39c-0.717-0.12-1.691-0.181-2.92-0.181c-2.188,0-3.854,0.76-4.998,2.277
		c-1.144,1.519-1.716,3.538-1.716,6.057c0,1.38,0.161,2.562,0.486,3.544c0.324,0.985,0.769,1.797,1.333,2.435
		c0.562,0.638,1.204,1.104,1.922,1.397c0.717,0.294,1.485,0.44,2.305,0.44c1.06,0,2.06-0.156,2.999-0.465
		c0.939-0.312,1.698-0.676,2.28-1.088V143.288z"/>
	<path fill="#55B948" d="M315.04,163.526v-22.725c3.484-1.208,7.002-1.812,10.556-1.812c1.094,0,2.134,0.045,3.126,0.131
		c0.99,0.087,2.084,0.267,3.28,0.544l-0.77,3.777c-1.093-0.312-2.059-0.509-2.895-0.595c-0.837-0.086-1.752-0.13-2.742-0.13
		c-2.083,0-4.202,0.293-6.354,0.88v19.929H315.04z"/>
	<path fill="#55B948" d="M348.451,138.939c3.211,0,5.688,1.009,7.43,3.028c1.742,2.019,2.614,5.082,2.614,9.188v1.502h-17.014
		c0.17,2.482,0.982,4.373,2.434,5.667s3.494,1.94,6.125,1.94c1.502,0,2.782-0.12,3.842-0.361c1.06-0.24,1.862-0.499,2.408-0.776
		l0.564,3.623c-0.512,0.277-1.435,0.57-2.768,0.879c-1.332,0.312-2.836,0.467-4.509,0.467c-2.049,0-3.852-0.318-5.406-0.958
		s-2.845-1.51-3.868-2.614c-1.026-1.104-1.795-2.425-2.307-3.958c-0.512-1.536-0.769-3.201-0.769-4.996
		c0-2.14,0.324-4.002,0.973-5.59c0.649-1.589,1.504-2.899,2.563-3.935c1.058-1.035,2.254-1.812,3.586-2.329
		C345.683,139.198,347.048,138.939,348.451,138.939z M354.189,149.188c0-2.036-0.53-3.648-1.588-4.838
		c-1.06-1.192-2.461-1.787-4.203-1.787c-0.989,0-1.888,0.189-2.688,0.568c-0.805,0.383-1.497,0.881-2.076,1.502
		c-0.581,0.621-1.043,1.33-1.384,2.123c-0.342,0.793-0.564,1.604-0.666,2.432H354.189z"/>
	<path fill="#55B948" d="M374.073,138.939c3.21,0,5.688,1.009,7.43,3.028c1.742,2.019,2.614,5.082,2.614,9.188v1.502h-17.015
		c0.171,2.482,0.983,4.373,2.435,5.667s3.493,1.94,6.124,1.94c1.503,0,2.783-0.12,3.843-0.361c1.06-0.24,1.862-0.499,2.408-0.776
		l0.564,3.623c-0.513,0.277-1.435,0.57-2.769,0.879c-1.331,0.312-2.835,0.467-4.508,0.467c-2.05,0-3.852-0.318-5.406-0.958
		s-2.845-1.51-3.869-2.614c-1.025-1.104-1.794-2.425-2.307-3.958c-0.512-1.536-0.769-3.201-0.769-4.996
		c0-2.14,0.324-4.002,0.974-5.59c0.648-1.589,1.504-2.899,2.563-3.935c1.058-1.035,2.254-1.812,3.585-2.329
		C371.305,139.198,372.669,138.939,374.073,138.939z M379.811,149.188c0-2.036-0.531-3.648-1.589-4.838
		c-1.059-1.192-2.46-1.787-4.202-1.787c-0.99,0-1.889,0.189-2.689,0.568c-0.804,0.383-1.496,0.881-2.075,1.502
		c-0.582,0.621-1.043,1.33-1.384,2.123c-0.342,0.793-0.564,1.604-0.666,2.432H379.811z"/>
	<path fill="#55B948" d="M390.059,140.183c1.538-0.381,3.066-0.675,4.587-0.881c1.52-0.206,2.946-0.312,4.279-0.312
		c3.177,0,5.577,0.829,7.199,2.486c1.622,1.654,2.434,4.313,2.434,7.97v14.08h-4.202v-13.304c0-1.553-0.137-2.812-0.408-3.778
		c-0.274-0.966-0.658-1.716-1.153-2.252c-0.495-0.533-1.094-0.904-1.795-1.112c-0.699-0.208-1.459-0.31-2.28-0.31
		c-0.683,0-1.408,0.041-2.177,0.128c-0.77,0.086-1.512,0.198-2.23,0.337v20.291h-4.253V140.183z"/>
</g>
</svg>
