<?xml version="1.0" encoding="utf-8"?>
<!-- Generator: Adobe Illustrator 25.2.0, SVG Export Plug-In . SVG Version: 6.00 Build 0)  -->
<svg version="1.1" id="Layer_1" xmlns="http://www.w3.org/2000/svg" xmlns:xlink="http://www.w3.org/1999/xlink" x="0px" y="0px"
	 viewBox="0 0 453.3 186.7" style="enable-background:new 0 0 453.3 186.7;" xml:space="preserve">
<style type="text/css">
	.st0{display:none;}
	.st1{display:inline;fill:#55B948;}
	.st2{display:inline;}
	.st3{fill:#55B948;}
	.st4{fill:#56AE31;}
	.st5{fill:#1D1D1B;}
</style>
<g class="st0">
	<rect x="410.6" y="17.6" class="st1" width="17.7" height="17.7"/>
	<g class="st2">
		<path class="st3" d="M90,43.8c19.5,0,32.7,15.1,32.7,37.1v3.9H74.2c1.1,8.5,7.7,15.6,18.8,15.6c6.1,0,13.3-2.5,17.5-6.7l7.6,11.4
			c-6.6,6.3-16.8,9.3-26.9,9.3c-19.9,0-34.9-13.8-34.9-35.4C56.2,59.5,70.1,43.8,90,43.8z M73.9,72.8h32.2
			c-0.4-6.4-4.7-14.9-16.1-14.9C79.3,57.8,74.7,66.1,73.9,72.8z"/>
		<path class="st3" d="M299.5,43.8c19.5,0,32.7,15.1,32.7,37.1v3.9h-48.6c1.1,8.5,7.7,15.6,18.8,15.6c6.1,0,13.3-2.5,17.5-6.7
			l7.6,11.4c-6.6,6.3-16.8,9.3-26.9,9.3c-19.9,0-34.9-13.8-34.9-35.4C265.7,59.5,279.6,43.8,299.5,43.8z M283.4,72.8h32.2
			c-0.4-6.4-4.7-14.9-16.1-14.9C288.8,57.8,284.2,66.1,283.4,72.8z"/>
		<path class="st3" d="M208.8,91.6c4.7,4.6,14.5,9.2,22.6,9.2c7.4,0,11-2.6,11-6.8c0-4.7-5.7-6.4-13.1-7.9
			c-11.2-2.2-25.7-5-25.7-21.1c0-11.3,9.6-21.2,26.8-21.2c11.1,0,19.9,3.9,26.2,9.2l-6.8,12.1c-3.9-4.3-11.4-7.8-19.3-7.8
			c-6.2,0-10.3,2.4-10.3,6.3c0,4.2,5.1,5.7,12.4,7.3c11.2,2.2,26.2,5.3,26.2,22c0,12.4-10.1,21.6-28.3,21.6
			c-11.4,0-22.3-3.9-29.2-10.5L208.8,91.6z"/>
	</g>
	<path class="st1" d="M176,91.1h17.2V45.4H176V91.1c-2.9,3.8-8.2,7.6-14.8,7.6c-7.3,0-12-3.1-12-12.4V45.4H132v47.8
		c0,13.1,6.8,21.2,21.1,21.2c10.7,0,18.5-5,23-10.1V91.1H176z"/>
	<g class="st2">
		<path class="st3" d="M342.8,112.8V43.7h18v69.1H342.8L342.8,112.8z"/>
		<path class="st3" d="M408.2,61.6v51.2h-17.7V61.6h-20.2V43.7h58v17.9H408.2L408.2,61.6z"/>
		<polygon class="st3" points="27.5,43.7 27.5,61.6 9.6,61.6 9.6,112.8 27.6,112.8 27.6,61.6 53.1,61.6 53.1,43.7 		"/>
	</g>
</g>
<g class="st0">
	<path class="st1" d="M142.7,139.5h10v3.6h-10v11.2c0,1.2,0.1,2.2,0.3,2.9c0.2,0.8,0.4,1.4,0.8,1.8c0.4,0.5,0.9,0.8,1.5,1
		s1.4,0.3,2.3,0.3c1.2,0,2.2-0.1,3-0.3s1.5-0.5,2.2-0.8l0.6,3.6c-0.5,0.2-1.2,0.5-2.3,0.8c-1,0.3-2.3,0.5-3.9,0.5
		c-1.8,0-3.2-0.2-4.4-0.6c-1.1-0.4-2-1-2.6-1.9c-0.6-0.8-1.1-1.9-1.3-3.1c-0.2-1.2-0.4-2.6-0.4-4.3V143h-5v-3.6h5v-6.7l4.2-0.7
		L142.7,139.5L142.7,139.5z"/>
	<path class="st1" d="M159.5,163.5v-35.1l4.3-0.7v12.2c0.7-0.3,1.5-0.5,2.3-0.6c0.9-0.2,1.7-0.2,2.5-0.2c1.8,0,3.3,0.3,4.5,0.8
		s2.2,1.3,2.9,2.3s1.2,2.1,1.5,3.5c0.3,1.3,0.5,2.8,0.5,4.5v13.6h-4.2v-12.6c0-3-0.4-5.1-1.2-6.3s-2.3-1.8-4.4-1.8
		c-0.9,0-1.8,0.1-2.6,0.3s-1.4,0.4-1.8,0.5v19.9L159.5,163.5L159.5,163.5z"/>
	<path class="st1" d="M191.1,143.1h-6.9v-3.6h11.1v14.8c0,2.4,0.3,4,1,4.8c0.6,0.8,1.6,1.2,2.9,1.2c1,0,1.9-0.1,2.7-0.4
		c0.8-0.2,1.5-0.5,2-0.8l0.6,3.6c-0.2,0.1-0.5,0.2-0.9,0.4s-0.8,0.3-1.3,0.4s-1,0.3-1.6,0.4c-0.6,0.1-1.2,0.2-1.9,0.2
		c-1.5,0-2.7-0.2-3.7-0.6c-1-0.4-1.8-1-2.4-1.9c-0.6-0.8-1-1.9-1.3-3.1c-0.2-1.2-0.4-2.6-0.4-4.3L191.1,143.1L191.1,143.1z
		 M192.2,135.8c-0.9,0-1.7-0.3-2.3-0.9c-0.6-0.6-1-1.5-1-2.5c0-1.1,0.3-1.9,1-2.5c0.6-0.6,1.4-0.9,2.3-0.9c0.9,0,1.7,0.3,2.3,0.9
		c0.6,0.6,0.9,1.5,0.9,2.5c0,1.1-0.3,1.9-0.9,2.5C193.9,135.5,193.1,135.8,192.2,135.8z"/>
	<path class="st1" d="M210.7,140.2c1.5-0.4,3.1-0.7,4.6-0.9s2.9-0.3,4.3-0.3c3.2,0,5.6,0.8,7.2,2.5c1.6,1.7,2.4,4.3,2.4,8v14.1H225
		v-13.3c0-1.6-0.1-2.8-0.4-3.8c-0.3-1-0.7-1.7-1.2-2.3c-0.5-0.5-1.1-0.9-1.8-1.1s-1.5-0.3-2.3-0.3c-0.7,0-1.4,0-2.2,0.1
		s-1.5,0.2-2.2,0.3v20.3h-4.3L210.7,140.2L210.7,140.2z"/>
	<path class="st1" d="M244.9,150.3c0.9,0.7,2,1.6,3.1,2.6c1.2,1.1,2.3,2.2,3.5,3.4c1.1,1.2,2.2,2.4,3.3,3.7c1,1.3,1.8,2.4,2.5,3.5
		h-5c-0.6-1.1-1.5-2.2-2.4-3.3c-1-1.1-2-2.2-3.1-3.2s-2.2-2-3.2-2.8s-2-1.6-2.9-2.2v11.5h-4.3v-35.1l4.3-0.7v21.9
		c1.9-1.7,3.8-3.3,5.6-4.9s3.6-3.3,5.1-5.1h5c-1.5,1.8-3.2,3.6-5.3,5.4C248.9,146.8,246.9,148.6,244.9,150.3z"/>
	<path class="st1" d="M301.7,161.3c-0.5,0.3-1.2,0.6-2.2,0.9c-1,0.3-2.1,0.5-3.4,0.5c-1.4,0-2.7-0.2-3.9-0.7
		c-1.2-0.5-2.3-1.2-3.2-2.1c-0.9-0.9-1.6-2.2-2.1-3.6c-0.5-1.5-0.8-3.2-0.8-5.2c0-1.8,0.2-3.4,0.7-4.8s1.2-2.7,2.2-3.8
		c0.9-1.1,2.1-1.9,3.5-2.5s2.9-0.9,4.7-0.9c2,0,3.8,0.1,5.3,0.4c1.5,0.3,2.7,0.6,3.7,0.9v21.4c0,3.7-0.9,6.4-2.8,8.1
		c-1.9,1.7-4.7,2.5-8.4,2.5c-1.5,0-2.9-0.1-4.2-0.4c-1.2-0.2-2.3-0.5-3.3-0.9l0.8-3.8c0.9,0.4,1.9,0.7,3,0.9s2.4,0.4,3.8,0.4
		c2.5,0,4.2-0.5,5.3-1.5c1.1-1,1.6-2.6,1.6-4.9L301.7,161.3L301.7,161.3z M301.7,143.3c-0.4-0.1-1-0.3-1.7-0.4
		c-0.7-0.1-1.7-0.2-2.9-0.2c-2.2,0-3.9,0.8-5,2.3s-1.7,3.5-1.7,6.1c0,1.4,0.2,2.6,0.5,3.5c0.3,1,0.8,1.8,1.3,2.4
		c0.6,0.6,1.2,1.1,1.9,1.4c0.7,0.3,1.5,0.4,2.3,0.4c1.1,0,2.1-0.2,3-0.5s1.7-0.7,2.3-1.1L301.7,143.3L301.7,143.3z"/>
	<path class="st1" d="M315,163.5v-22.7c3.5-1.2,7-1.8,10.6-1.8c1.1,0,2.1,0,3.1,0.1s2.1,0.3,3.3,0.5l-0.8,3.8
		c-1.1-0.3-2.1-0.5-2.9-0.6s-1.8-0.1-2.7-0.1c-2.1,0-4.2,0.3-6.4,0.9v19.9L315,163.5L315,163.5z"/>
	<path class="st1" d="M348.5,138.9c3.2,0,5.7,1,7.4,3s2.6,5.1,2.6,9.2v1.5h-17c0.2,2.5,1,4.4,2.4,5.7s3.5,1.9,6.1,1.9
		c1.5,0,2.8-0.1,3.8-0.4c1.1-0.2,1.9-0.5,2.4-0.8l0.6,3.6c-0.5,0.3-1.4,0.6-2.8,0.9c-1.3,0.3-2.8,0.5-4.5,0.5c-2,0-3.9-0.3-5.4-1
		s-2.8-1.5-3.9-2.6c-1-1.1-1.8-2.4-2.3-4c-0.5-1.5-0.8-3.2-0.8-5c0-2.1,0.3-4,1-5.6c0.6-1.6,1.5-2.9,2.6-3.9s2.3-1.8,3.6-2.3
		C345.7,139.2,347,138.9,348.5,138.9z M354.2,149.2c0-2-0.5-3.6-1.6-4.8s-2.5-1.8-4.2-1.8c-1,0-1.9,0.2-2.7,0.6
		c-0.8,0.4-1.5,0.9-2.1,1.5s-1,1.3-1.4,2.1c-0.3,0.8-0.6,1.6-0.7,2.4H354.2z"/>
	<path class="st1" d="M374.1,138.9c3.2,0,5.7,1,7.4,3s2.6,5.1,2.6,9.2v1.5h-17c0.2,2.5,1,4.4,2.4,5.7s3.5,1.9,6.1,1.9
		c1.5,0,2.8-0.1,3.8-0.4c1.1-0.2,1.9-0.5,2.4-0.8l0.6,3.6c-0.5,0.3-1.4,0.6-2.8,0.9c-1.3,0.3-2.8,0.5-4.5,0.5c-2,0-3.9-0.3-5.4-1
		s-2.8-1.5-3.9-2.6c-1-1.1-1.8-2.4-2.3-4c-0.5-1.5-0.8-3.2-0.8-5c0-2.1,0.3-4,1-5.6c0.6-1.6,1.5-2.9,2.6-3.9s2.3-1.8,3.6-2.3
		C371.3,139.2,372.7,138.9,374.1,138.9z M379.8,149.2c0-2-0.5-3.6-1.6-4.8s-2.5-1.8-4.2-1.8c-1,0-1.9,0.2-2.7,0.6
		c-0.8,0.4-1.5,0.9-2.1,1.5s-1,1.3-1.4,2.1c-0.3,0.8-0.6,1.6-0.7,2.4H379.8z"/>
	<path class="st1" d="M390.1,140.2c1.5-0.4,3.1-0.7,4.6-0.9s2.9-0.3,4.3-0.3c3.2,0,5.6,0.8,7.2,2.5s2.4,4.3,2.4,8v14.1h-4.2v-13.3
		c0-1.6-0.1-2.8-0.4-3.8s-0.7-1.7-1.2-2.3c-0.5-0.5-1.1-0.9-1.8-1.1c-0.7-0.2-1.5-0.3-2.3-0.3c-0.7,0-1.4,0-2.2,0.1
		c-0.8,0.1-1.5,0.2-2.2,0.3v20.3H390L390.1,140.2L390.1,140.2z"/>
</g>
<g>
	<rect x="427.2" y="14.5" class="st4" width="18.6" height="18.6"/>
	<g>
		<path class="st4" d="M90.6,42C111,42,125,57.8,125,81v4.1H74c1.1,8.9,8.1,16.4,19.7,16.4c6.4,0,13.9-2.6,18.3-7l8,12
			c-7,6.6-17.6,9.8-28.3,9.8c-20.9,0-36.6-14.5-36.6-37.2C55.1,58.6,69.7,42,90.6,42z M73.7,72.5h33.8c-0.4-6.7-5-15.7-16.9-15.7
			C79.4,56.8,74.6,65.5,73.7,72.5z"/>
		<path class="st4" d="M310.6,42C331.1,42,345,57.8,345,81v4.1h-51c1.1,8.9,8.1,16.4,19.7,16.4c6.4,0,13.9-2.6,18.3-7l8,12
			c-7,6.6-17.6,9.8-28.3,9.8c-20.9,0-36.6-14.5-36.6-37.2C275.1,58.6,289.7,42,310.6,42z M293.7,72.5h33.8
			c-0.4-6.7-5-15.7-16.9-15.7C299.4,56.8,294.6,65.5,293.7,72.5z"/>
		<path class="st4" d="M215.3,92.3c5,4.8,15.2,9.7,23.7,9.7c7.8,0,11.5-2.8,11.5-7.2c0-5-6-6.7-13.8-8.3c-11.8-2.3-27-5.3-27-22.1
			c0-11.9,10.1-22.3,28.1-22.3c11.6,0,20.9,4.1,27.6,9.7l-7.1,12.7c-4.1-4.5-11.9-8.2-20.3-8.2c-6.5,0-10.8,2.5-10.8,6.6
			c0,4.4,5.4,6,13.1,7.6c11.8,2.3,27.6,5.6,27.6,23.1c0,13-10.7,22.7-29.7,22.7c-11.9,0-23.4-4.1-30.7-11L215.3,92.3z"/>
	</g>
	<path class="st4" d="M180.9,91.8H199v-48h-18L180.9,91.8c-3.1,4-8.6,8-15.6,8c-7.7,0-12.6-3.2-12.6-13V43.8h-18V94
		c0,13.8,7.1,22.3,22.2,22.3c11.2,0,19.4-5.2,24.1-10.7V91.8z"/>
	<g>
		<path class="st4" d="M356.1,114.5V42h18.8v72.6H356.1z"/>
		<path class="st4" d="M424.7,60.7v53.8h-18.6V60.7H385V42h60.9v18.7H424.7z"/>
		<polygon class="st4" points="25,42 25,60.7 6.2,60.7 6.2,114.5 25.1,114.5 25.1,60.7 51.9,60.7 51.9,42 		"/>
	</g>
</g>
<g>
	<path class="st4" d="M280.8,132.8h6.2v2.2h-6.2v6.9c0,0.7,0.1,1.4,0.2,1.8c0.1,0.5,0.3,0.9,0.5,1.1c0.2,0.3,0.6,0.5,0.9,0.6
		c0.4,0.1,0.8,0.2,1.4,0.2c0.8,0,1.4-0.1,1.8-0.2c0.5-0.1,0.9-0.3,1.3-0.5l0.4,2.2c-0.3,0.1-0.8,0.3-1.4,0.5
		c-0.6,0.2-1.4,0.3-2.4,0.3c-1.1,0-2-0.1-2.7-0.4c-0.7-0.3-1.2-0.6-1.6-1.2c-0.4-0.5-0.7-1.1-0.8-1.9c-0.1-0.8-0.2-1.6-0.2-2.6V135
		h-3.1v-2.2h3.1v-4.2l2.6-0.4V132.8z"/>
	<path class="st4" d="M291.2,147.6v-21.8l2.6-0.4v7.6c0.4-0.2,0.9-0.3,1.4-0.4c0.5-0.1,1-0.1,1.6-0.1c1.1,0,2.1,0.2,2.8,0.5
		c0.8,0.3,1.3,0.8,1.8,1.4c0.4,0.6,0.8,1.3,1,2.1c0.2,0.8,0.3,1.8,0.3,2.8v8.4h-2.6v-7.8c0-1.8-0.3-3.1-0.8-3.9
		c-0.5-0.8-1.4-1.1-2.7-1.1c-0.6,0-1.1,0.1-1.6,0.2c-0.5,0.1-0.9,0.2-1.1,0.3v12.3H291.2z"/>
	<path class="st4" d="M310.8,135h-4.3v-2.2h6.9v9.1c0,1.5,0.2,2.5,0.6,3c0.4,0.5,1,0.8,1.8,0.8c0.6,0,1.2-0.1,1.7-0.2
		c0.5-0.1,0.9-0.3,1.2-0.5l0.4,2.2c-0.1,0.1-0.3,0.1-0.5,0.2c-0.2,0.1-0.5,0.2-0.8,0.3c-0.3,0.1-0.6,0.2-1,0.2
		c-0.4,0.1-0.8,0.1-1.2,0.1c-0.9,0-1.7-0.1-2.3-0.4c-0.6-0.3-1.1-0.6-1.5-1.2c-0.4-0.5-0.6-1.1-0.8-1.9c-0.1-0.8-0.2-1.6-0.2-2.6
		V135z M311.5,130.5c-0.6,0-1-0.2-1.4-0.6c-0.4-0.4-0.6-0.9-0.6-1.6c0-0.7,0.2-1.2,0.6-1.6c0.4-0.4,0.9-0.6,1.4-0.6
		c0.6,0,1.1,0.2,1.4,0.6c0.4,0.4,0.6,0.9,0.6,1.6c0,0.7-0.2,1.2-0.6,1.6C312.5,130.3,312,130.5,311.5,130.5z"/>
	<path class="st4" d="M323,133.2c1-0.2,1.9-0.4,2.8-0.5c0.9-0.1,1.8-0.2,2.6-0.2c2,0,3.5,0.5,4.5,1.5c1,1,1.5,2.7,1.5,4.9v8.7h-2.6
		v-8.2c0-1-0.1-1.7-0.3-2.3c-0.2-0.6-0.4-1.1-0.7-1.4c-0.3-0.3-0.7-0.6-1.1-0.7c-0.4-0.1-0.9-0.2-1.4-0.2c-0.4,0-0.9,0-1.3,0.1
		c-0.5,0.1-0.9,0.1-1.4,0.2v12.6H323V133.2z"/>
	<path class="st4" d="M344.1,139.5c0.6,0.4,1.2,1,1.9,1.6c0.7,0.7,1.4,1.4,2.1,2.1c0.7,0.7,1.4,1.5,2,2.3c0.6,0.8,1.1,1.5,1.5,2.2
		h-3.1c-0.4-0.7-0.9-1.3-1.5-2c-0.6-0.7-1.2-1.4-1.9-2c-0.7-0.6-1.3-1.2-2-1.8c-0.7-0.5-1.3-1-1.8-1.3v7.1h-2.6v-21.8l2.6-0.4V139
		c1.2-1,2.3-2,3.5-3.1c1.2-1,2.2-2.1,3.1-3.2h3.1c-0.9,1.1-2,2.2-3.3,3.4C346.6,137.3,345.4,138.4,344.1,139.5z"/>
	<path class="st4" d="M379.3,146.3c-0.3,0.2-0.8,0.4-1.4,0.5c-0.6,0.2-1.3,0.3-2.1,0.3c-0.9,0-1.7-0.1-2.4-0.4
		c-0.8-0.3-1.4-0.7-2-1.3c-0.6-0.6-1-1.3-1.3-2.2c-0.3-0.9-0.5-2-0.5-3.2c0-1.1,0.2-2.1,0.5-3c0.3-0.9,0.8-1.7,1.3-2.4
		c0.6-0.7,1.3-1.2,2.1-1.6c0.8-0.4,1.8-0.6,2.9-0.6c1.3,0,2.4,0.1,3.3,0.3c0.9,0.2,1.7,0.4,2.3,0.5v13.3c0,2.3-0.6,4-1.7,5
		c-1.2,1-2.9,1.5-5.2,1.5c-1,0-1.8-0.1-2.6-0.2c-0.8-0.1-1.5-0.3-2-0.5l0.5-2.3c0.5,0.2,1.2,0.4,1.9,0.6c0.7,0.2,1.5,0.2,2.3,0.2
		c1.5,0,2.6-0.3,3.3-0.9c0.7-0.6,1-1.6,1-3V146.3z M379.3,135.1c-0.3-0.1-0.6-0.2-1-0.2c-0.4-0.1-1-0.1-1.8-0.1
		c-1.4,0-2.4,0.5-3.1,1.4c-0.7,0.9-1.1,2.2-1.1,3.8c0,0.9,0.1,1.6,0.3,2.2c0.2,0.6,0.5,1.1,0.8,1.5c0.3,0.4,0.7,0.7,1.2,0.9
		c0.4,0.2,0.9,0.3,1.4,0.3c0.7,0,1.3-0.1,1.9-0.3c0.6-0.2,1.1-0.4,1.4-0.7V135.1z"/>
	<path class="st4" d="M387.6,147.6v-14.1c2.2-0.7,4.3-1.1,6.5-1.1c0.7,0,1.3,0,1.9,0.1c0.6,0.1,1.3,0.2,2,0.3l-0.5,2.3
		c-0.7-0.2-1.3-0.3-1.8-0.4c-0.5-0.1-1.1-0.1-1.7-0.1c-1.3,0-2.6,0.2-3.9,0.5v12.3H387.6z"/>
	<path class="st4" d="M408.3,132.4c2,0,3.5,0.6,4.6,1.9c1.1,1.2,1.6,3.1,1.6,5.7v0.9h-10.5c0.1,1.5,0.6,2.7,1.5,3.5
		c0.9,0.8,2.2,1.2,3.8,1.2c0.9,0,1.7-0.1,2.4-0.2c0.7-0.1,1.2-0.3,1.5-0.5l0.3,2.2c-0.3,0.2-0.9,0.4-1.7,0.5
		c-0.8,0.2-1.8,0.3-2.8,0.3c-1.3,0-2.4-0.2-3.3-0.6c-1-0.4-1.8-0.9-2.4-1.6c-0.6-0.7-1.1-1.5-1.4-2.5c-0.3-1-0.5-2-0.5-3.1
		c0-1.3,0.2-2.5,0.6-3.5c0.4-1,0.9-1.8,1.6-2.4c0.7-0.6,1.4-1.1,2.2-1.4C406.5,132.6,407.4,132.4,408.3,132.4z M411.8,138.8
		c0-1.3-0.3-2.3-1-3c-0.7-0.7-1.5-1.1-2.6-1.1c-0.6,0-1.2,0.1-1.7,0.4c-0.5,0.2-0.9,0.5-1.3,0.9c-0.4,0.4-0.6,0.8-0.9,1.3
		c-0.2,0.5-0.3,1-0.4,1.5H411.8z"/>
	<path class="st4" d="M424.1,132.4c2,0,3.5,0.6,4.6,1.9c1.1,1.2,1.6,3.1,1.6,5.7v0.9h-10.5c0.1,1.5,0.6,2.7,1.5,3.5
		c0.9,0.8,2.2,1.2,3.8,1.2c0.9,0,1.7-0.1,2.4-0.2c0.7-0.1,1.2-0.3,1.5-0.5l0.3,2.2c-0.3,0.2-0.9,0.4-1.7,0.5
		c-0.8,0.2-1.8,0.3-2.8,0.3c-1.3,0-2.4-0.2-3.3-0.6c-1-0.4-1.8-0.9-2.4-1.6c-0.6-0.7-1.1-1.5-1.4-2.5c-0.3-1-0.5-2-0.5-3.1
		c0-1.3,0.2-2.5,0.6-3.5c0.4-1,0.9-1.8,1.6-2.4c0.7-0.6,1.4-1.1,2.2-1.4C422.4,132.6,423.3,132.4,424.1,132.4z M427.7,138.8
		c0-1.3-0.3-2.3-1-3c-0.7-0.7-1.5-1.1-2.6-1.1c-0.6,0-1.2,0.1-1.7,0.4c-0.5,0.2-0.9,0.5-1.3,0.9c-0.4,0.4-0.6,0.8-0.9,1.3
		c-0.2,0.5-0.3,1-0.4,1.5H427.7z"/>
	<path class="st4" d="M434,133.2c1-0.2,1.9-0.4,2.8-0.5c0.9-0.1,1.8-0.2,2.6-0.2c2,0,3.5,0.5,4.5,1.5c1,1,1.5,2.7,1.5,4.9v8.7h-2.6
		v-8.2c0-1-0.1-1.7-0.3-2.3c-0.2-0.6-0.4-1.1-0.7-1.4c-0.3-0.3-0.7-0.6-1.1-0.7c-0.4-0.1-0.9-0.2-1.4-0.2c-0.4,0-0.9,0-1.3,0.1
		c-0.5,0.1-0.9,0.1-1.4,0.2v12.6H434V133.2z"/>
</g>
<g>
	<path class="st5" d="M9.9,148.1l-1.6-4.7c-0.2-0.6-0.3-1.1-0.4-1.1h0c0,0.1,0,0.6-0.1,1.2l-0.6,4.7H5.9l1.1-8.1h1.3l1.8,5.3
		c0.2,0.6,0.4,1.4,0.5,1.4h0c0,0,0.2-0.8,0.5-1.4l1.8-5.3h1.3l1.1,8.1H14l-0.6-4.7c-0.1-0.6-0.1-1.1-0.1-1.2h0
		c0,0.1-0.2,0.6-0.4,1.1l-1.6,4.7H9.9z"/>
	<path class="st5" d="M20.2,148.1v-8.1h4.5v1.1h-3.1v2.2h2.7v1.1h-2.7v2.6h3.2v1.1H20.2z"/>
	<path class="st5" d="M33,148.1l-1.6-4.7c-0.2-0.6-0.3-1.1-0.4-1.1h0c0,0.1,0,0.6-0.1,1.2l-0.6,4.7h-1.3l1.1-8.1h1.3l1.8,5.3
		c0.2,0.6,0.4,1.4,0.5,1.4h0c0,0,0.2-0.8,0.5-1.4l1.8-5.3h1.3l1.1,8.1h-1.4l-0.6-4.7c-0.1-0.6-0.1-1.1-0.1-1.2h0
		c0,0.1-0.2,0.6-0.4,1.1l-1.6,4.7H33z"/>
	<path class="st5" d="M45.7,148.1h-2.4v-8.1h2.5c1.5,0,2.7,0.5,2.7,2c0,1-0.6,1.6-1.5,1.8v0c1,0.2,1.8,0.8,1.8,2
		C48.8,147.5,47.6,148.1,45.7,148.1z M45.6,141h-1v2.3h0.9c1.1,0,1.5-0.4,1.5-1.2C47.1,141.4,46.6,141,45.6,141z M45.7,144.4h-1.1
		v2.6h1c1.2,0,1.8-0.4,1.8-1.3C47.4,144.9,47,144.4,45.7,144.4z"/>
	<path class="st5" d="M53.7,148.1v-8.1h4.5v1.1H55v2.2h2.7v1.1H55v2.6h3.2v1.1H53.7z"/>
	<path class="st5" d="M67.5,148.1l-1.6-2.3c-0.8-1.1-0.9-1.2-1.4-1.2h-0.1v3.5h-1.4v-8.1h2.5c1.8,0,2.9,0.8,2.9,2.3
		c0,1.3-0.9,2-2.1,2.2v0c0.2,0.1,0.4,0.4,0.9,1.1l1.8,2.6H67.5z M65.4,141h-1v2.5h1.1c1.1,0,1.5-0.5,1.5-1.3S66.5,141,65.4,141z"/>
	<path class="st5" d="M82.8,148.2c-2.6,0-4.1-2-4.1-4.2c0-2.2,1.5-4.2,4.1-4.2c2.6,0,4.1,2,4.1,4.2
		C86.8,146.2,85.4,148.2,82.8,148.2z M82.8,140.9c-1.8,0-2.7,1.4-2.7,3.1s0.9,3.1,2.6,3.1c1.8,0,2.7-1.4,2.7-3.1
		C85.4,142.4,84.5,140.9,82.8,140.9z"/>
	<path class="st5" d="M93,141.1v2.3h2.7v1.1H93v3.6h-1.4v-8.1h4.5v1.1H93z"/>
	<path class="st5" d="M106.5,148.1v-8.1h4.5v1.1h-3.1v2.2h2.7v1.1h-2.7v2.6h3.2v1.1H106.5z"/>
	<path class="st5" d="M115.9,148.1v-8.1h1.4v7h3.1v1.1H115.9z"/>
	<path class="st5" d="M125.6,148.1h-1.4l3.1-8.1h1.3l3.2,8.1h-1.5l-0.6-1.7h-3.4L125.6,148.1z M128.4,142.9c-0.2-0.7-0.3-1-0.5-1.4
		h0c-0.1,0.4-0.2,0.7-0.5,1.4l-0.8,2.3h2.6L128.4,142.9z"/>
	<path class="st5" d="M141.6,148.1l-3.5-5.1c-0.4-0.5-0.7-1.1-0.7-1.1h0c0,0,0,0.5,0,1v5.2h-1.3v-8.1h1.4l3.3,4.8
		c0.4,0.6,0.8,1.3,0.8,1.3h0c0,0,0-0.6,0-1.2v-4.9h1.3v8.1H141.6z"/>
	<path class="st5" d="M150.3,148.1h-2.2v-8.1h2.2c3.2,0,4.6,1.6,4.6,4S153.6,148.1,150.3,148.1z M150.4,141h-0.8v5.9h0.9
		c2.1,0,3.1-1,3.1-3C153.6,141.9,152.6,141,150.4,141z"/>
	<path class="st5" d="M159.8,148.1v-8.1h4.5v1.1h-3.1v2.2h2.7v1.1h-2.7v2.6h3.2v1.1H159.8z"/>
	<path class="st5" d="M173.6,148.1l-1.6-2.3c-0.8-1.1-0.9-1.2-1.4-1.2h-0.1v3.5h-1.4v-8.1h2.5c1.8,0,2.9,0.8,2.9,2.3
		c0,1.3-0.9,2-2.1,2.2v0c0.2,0.1,0.4,0.4,0.9,1.1l1.8,2.6H173.6z M171.5,141h-1v2.5h1.1c1.1,0,1.5-0.5,1.5-1.3S172.6,141,171.5,141z
		"/>
	<path class="st5" d="M181.4,148.2c-1.3,0-2.1-0.5-2.4-0.8l0.6-1c0.2,0.1,0.8,0.7,1.8,0.7c0.9,0,1.5-0.5,1.5-1.1
		c0-0.8-0.9-1.1-1.8-1.6c-1-0.5-1.8-1.1-1.8-2.4c0-1.4,1.1-2.2,2.5-2.2c1.3,0,2,0.4,2.3,0.7l-0.6,1c-0.3-0.2-0.9-0.5-1.6-0.5
		c-0.7,0-1.2,0.4-1.2,1c0,0.7,0.6,1,1.5,1.4c1.1,0.5,2.2,1.1,2.2,2.6C184.2,147.3,183.1,148.2,181.4,148.2z"/>
	<path class="st5" d="M198.2,148.2c-2.7,0-4.2-2-4.2-4.2c0-2.2,1.6-4.2,4.3-4.2c1.1,0,1.9,0.2,2.6,0.7l-0.6,1
		c-0.6-0.4-1.1-0.6-2-0.6c-1.9,0-2.8,1.4-2.8,3c0,1.7,0.8,3.1,2.7,3.1c0.7,0,1.3-0.2,1.7-0.4v-1.9h-1.6v-1.1h3v3.7
		C201,147.6,200.2,148.2,198.2,148.2z"/>
	<path class="st5" d="M210.8,148.1l-1.6-2.3c-0.8-1.1-0.9-1.2-1.4-1.2h-0.1v3.5h-1.4v-8.1h2.5c1.8,0,2.9,0.8,2.9,2.3
		c0,1.3-0.9,2-2.1,2.2v0c0.2,0.1,0.4,0.4,0.9,1.1l1.8,2.6H210.8z M208.7,141h-1v2.5h1.1c1.1,0,1.5-0.5,1.5-1.3S209.8,141,208.7,141z
		"/>
	<path class="st5" d="M220.2,148.2c-2.6,0-4.1-2-4.1-4.2c0-2.2,1.5-4.2,4.1-4.2c2.6,0,4.1,2,4.1,4.2
		C224.3,146.2,222.8,148.2,220.2,148.2z M220.2,140.9c-1.8,0-2.7,1.4-2.7,3.1s0.9,3.1,2.6,3.1c1.8,0,2.7-1.4,2.7-3.1
		C222.8,142.4,222,140.9,220.2,140.9z"/>
	<path class="st5" d="M232.2,148.2c-2.3,0-3.3-1.2-3.3-3.2v-5h1.4v4.9c0,1.5,0.6,2.2,2,2.2c1.3,0,1.9-0.8,1.9-2.1v-5h1.3v4.9
		C235.5,147,234.4,148.2,232.2,148.2z"/>
	<path class="st5" d="M242.9,145h-0.8v3.1h-1.4v-8.1h2.4c1.7,0,3,0.8,3,2.5C246.1,144.1,244.9,145,242.9,145z M243,141h-0.9v2.9h0.9
		c1.2,0,1.8-0.5,1.8-1.5C244.7,141.6,244.2,141,243,141z"/>
</g>
<rect x="260.6" y="127.9" class="st4" width="1.1" height="20.3"/>
</svg>
